sfk_cyclingleg_x_-0.09_y_-0.06_states
version=1
nRows=12
nColumns=53
inDegrees=yes

# SIMM Motion File Header:
name sfk_cyclingleg_x_-0.09_y_-0.06_states
datacolumns 53
datarows 12
otherdata 1
range 0.00000000 0.03620240
endheader
time	/jointset/bb/crank_angle/value	/jointset/bb/crank_angle/speed	/jointset/spindle/pedal_angle_r/value	/jointset/spindle/pedal_angle_r/speed	/jointset/ground_pelvis/pelvis_tilt/value	/jointset/ground_pelvis/pelvis_tilt/speed	/jointset/ground_pelvis/pelvis_list/value	/jointset/ground_pelvis/pelvis_list/speed	/jointset/ground_pelvis/pelvis_rotation/value	/jointset/ground_pelvis/pelvis_rotation/speed	/jointset/ground_pelvis/pelvis_tx/value	/jointset/ground_pelvis/pelvis_tx/speed	/jointset/ground_pelvis/pelvis_ty/value	/jointset/ground_pelvis/pelvis_ty/speed	/jointset/ground_pelvis/pelvis_tz/value	/jointset/ground_pelvis/pelvis_tz/speed	/jointset/hip_r/hip_angle_r/value	/jointset/hip_r/hip_angle_r/speed	/jointset/hip_r/hip_adduction_r/value	/jointset/hip_r/hip_adduction_r/speed	/jointset/hip_r/hip_rotation_r/value	/jointset/hip_r/hip_rotation_r/speed	/jointset/knee_r/knee_angle_r/value	/jointset/knee_r/knee_angle_r/speed	/jointset/knee_r/tib_tx_r/value	/jointset/knee_r/tib_tx_r/speed	/jointset/knee_r/tib_ty_r/value	/jointset/knee_r/tib_ty_r/speed	/jointset/tib_pat_r/pat_angle_r/value	/jointset/tib_pat_r/pat_angle_r/speed	/jointset/tib_pat_r/pat_tx_r/value	/jointset/tib_pat_r/pat_tx_r/speed	/jointset/tib_pat_r/pat_ty_r/value	/jointset/tib_pat_r/pat_ty_r/speed	/jointset/ankle_r/ankle_angle_r/value	/jointset/ankle_r/ankle_angle_r/speed	/jointset/subtalar_r/subtalar_angle_r/value	/jointset/subtalar_r/subtalar_angle_r/speed	/jointset/mtp_r/mtp_angle_r/value	/jointset/mtp_r/mtp_angle_r/speed	/forceset/bifemlh_r/activation	/forceset/bifemlh_r/fiber_length	/forceset/bifemsh_r/activation	/forceset/bifemsh_r/fiber_length	/forceset/glut_max2_r/activation	/forceset/glut_max2_r/fiber_length	/forceset/vas_int_r/activation	/forceset/vas_int_r/fiber_length	/forceset/med_gas_r/activation	/forceset/med_gas_r/fiber_length	/forceset/tib_ant_r/activation	/forceset/tib_ant_r/fiber_length
      0.00000000	    -10.13487855	   -480.13863232	      4.08263664	    609.99112071	     -0.00000000	     -0.00000000	      0.00000000	     -0.00000000	      0.00000000	      0.00000000	     -0.09000000	      0.00000000	     -0.05623795	     -0.00000000	     -0.00000000	     -0.00000000	     83.36736261	     34.22658537	      4.06407899	      1.42267766	     -3.96148141	     15.05352548	   -116.89673825	    142.26610267	     -0.00262455	      0.04993342	     -0.49505231	      0.04570031	     17.65122974	     -0.01533784	      0.02100681	      0.07071249	     -0.02435475	      0.01147243	     28.18329190	    -48.01247228	      0.00000000	     -0.00000000	     -0.00000000	      0.00000000	      0.05000000	      0.13843303	      0.05000000	      0.14469031	      0.05000000	      0.15525111	      0.05000000	      0.16115917	      0.05000000	      0.12991069	      0.05000000	      0.11035557
      0.00109103	    -10.65872392	   -480.13863232	      4.74788880	    609.50261588	     -0.00000000	     -0.00000000	      0.00000000	      0.00000000	      0.00000000	      0.00000000	     -0.09000000	      0.00000000	     -0.05623795	     -0.00000000	     -0.00000000	     -0.00000000	     83.40354968	     32.10825816	      4.06564249	      1.44338391	     -3.94496484	     15.22302817	   -116.74043094	    144.26328319	     -0.00256979	      0.05043782	     -0.49500207	      0.04638788	     17.65120869	     -0.02333225	      0.02108444	      0.07159529	     -0.02434215	      0.01161085	     28.13069991	    -48.39300037	     -0.00000000	     -0.00000000	      0.00000000	      0.00000000	      0.04922272	      0.13843387	      0.04922272	      0.14469224	      0.04922272	      0.15525216	      0.04922272	      0.16114731	      0.04922272	      0.12991224	      0.04922272	      0.11035710
      0.00551915	    -12.78483411	   -480.13863232	      7.44238067	    607.47935439	     -0.00000000	     -0.00000000	      0.00000000	      0.00000000	      0.00000000	      0.00000000	     -0.09000000	      0.00000000	     -0.05623795	     -0.00000000	     -0.00000000	     -0.00000000	     83.52662170	     23.46814143	      4.07221631	      1.52510608	     -3.87608116	     15.88089808	   -116.08391102	    152.21978856	     -0.00234213	      0.05235043	     -0.49479053	      0.04914687	     17.65102673	     -0.05999861	      0.02140921	      0.07505883	     -0.02428953	      0.01214901	     27.91324226	    -49.78249992	      0.00000000	      0.00000000	      0.00000000	      0.00000000	      0.04620481	      0.13845609	      0.04620481	      0.14473620	      0.04620481	      0.15527675	      0.04620481	      0.16095586	      0.04620481	      0.12995128	      0.04620481	      0.11041008
      0.00994726	    -14.91094430	   -480.13863232	     10.12779158	    605.40392695	     -0.00000000	     -0.00000000	      0.00000000	      0.00000000	      0.00000000	      0.00000000	     -0.09000000	      0.00000000	     -0.05623795	     -0.00000000	     -0.00000000	     -0.00000000	     83.61131921	     14.78067408	      4.07914315	      1.60274345	     -3.80439039	     16.49101316	   -115.39269701	    159.93229513	     -0.00210649	      0.05404511	     -0.49456689	      0.05185280	     17.65066674	     -0.10383287	      0.02174889	      0.07832858	     -0.02423462	      0.01264801	     27.69017600	    -50.92710274	      0.00000000	      0.00000000	     -0.00000000	     -0.00000000	      0.04339291	      0.13851171	      0.04339291	      0.14481939	      0.04339291	      0.15532510	      0.04339291	      0.16062751	      0.04339291	      0.13002823	      0.04339291	      0.11058226
      0.01437538	    -17.03705449	   -480.13863232	     12.80392678	    603.29246086	     -0.00000000	      0.00000000	      0.00000000	      0.00000000	      0.00000000	     -0.00000000	     -0.09000000	     -0.00000000	     -0.05623795	     -0.00000000	     -0.00000000	     -0.00000000	     83.65749315	      6.07306120	      4.08640387	      1.67583072	     -3.73010195	     17.05434870	   -114.66788038	    167.39602066	     -0.00186382	      0.05552039	     -0.49433140	      0.05450253	     17.65009580	     -0.15536413	      0.02210262	      0.08140267	     -0.02417758	      0.01310632	     27.46257199	    -51.83322800	      0.00000000	      0.00000000	     -0.00000000	     -0.00000000	      0.04077052	      0.13859947	      0.04077052	      0.14492111	      0.04077052	      0.15538196	      0.04077052	      0.16037730	      0.04077052	      0.13012096	      0.04077052	      0.11083719
      0.01732332	    -18.45247316	   -480.13863232	     14.58030644	    601.87409049	     -0.00000000	      0.00000000	      0.00000000	      0.00000000	      0.00000000	     -0.00000000	     -0.09000000	     -0.00000000	     -0.05623795	     -0.00000000	     -0.00000000	     -0.00000000	     83.66685265	      0.27787275	      4.09141235	      1.72175167	     -3.67930643	     17.40406237	   -114.16726189	    172.22508209	     -0.00169886	      0.05638076	     -0.49416817	      0.05623387	     17.64958214	     -0.19345883	      0.02234547	      0.08334028	     -0.02413852	      0.01338819	     27.30904613	    -52.30811078	      0.00000000	      0.00000000	     -0.00000000	     -0.00000000	      0.03912238	      0.13867107	      0.03912238	      0.14499556	      0.03912238	      0.15541858	      0.03912238	      0.16013429	      0.03912238	      0.13018746	      0.03912238	      0.11101678
      0.02114642	    -20.28809026	   -480.13863232	     16.87780102	    600.02702799	     -0.00000000	      0.00000000	      0.00000000	      0.00000000	      0.00000000	     -0.00000000	     -0.09000000	      0.00000000	     -0.05623795	     -0.00000000	     -0.00000000	     -0.00000000	     83.65357130	     -7.22170181	      4.09810326	      1.77783008	     -3.61194766	     17.82829021	   -113.49711752	    178.31981402	     -0.00148140	      0.05735201	     -0.49394895	      0.05843863	     17.64874426	     -0.24528070	      0.02266869	      0.08572351	     -0.02408668	      0.01372532	     27.10812000	    -52.77619510	      0.00000000	      0.00000000	     -0.00000000	     -0.00000000	      0.03709359	      0.13877164	      0.03709359	      0.14509908	      0.03709359	      0.15546083	      0.03709359	      0.15987008	      0.03709359	      0.13028003	      0.03709359	      0.11124801
      0.02414135	    -21.72607535	   -480.13863232	     18.67267539	    598.57878404	      0.00000000	      0.00000000	      0.00000000	      0.00000000	     -0.00000000	     -0.00000000	     -0.09000000	      0.00000000	     -0.05623795	     -0.00000000	     -0.00000000	     -0.00000000	     83.62317195	    -13.07488082	      4.10348987	      1.81888438	     -3.55808420	     18.13814799	   -112.95608143	    182.96107963	     -0.00130864	      0.05799955	     -0.49377139	      0.06013265	     17.64794679	     -0.28747892	      0.02292809	      0.08748855	     -0.02404521	      0.01396656	     26.94965412	    -53.03010756	      0.00000000	      0.00000000	     -0.00000000	     -0.00000000	      0.03558509	      0.13885139	      0.03558509	      0.14518604	      0.03558509	      0.15548850	      0.03558509	      0.15961639	      0.03558509	      0.13035727	      0.03558509	      0.11142865
      0.02818943	    -23.66971367	   -480.13863232	     21.09181338	    596.62614341	      0.00000000	      0.00000000	      0.00000000	      0.00000000	     -0.00000000	      0.00000000	     -0.09000000	     -0.00000000	     -0.05623795	     -0.00000000	     -0.00000000	     -0.00000000	     83.55430060	    -20.94222238	      4.11095833	      1.87017398	     -3.48386164	     18.52667409	   -112.20304885	    189.04766908	     -0.00107234	      0.05871810	     -0.49352341	      0.06237439	     17.64666455	     -0.34633274	      0.02328685	      0.08973286	     -0.02398807	      0.01426005	     26.73453800	    -53.22214966	      0.00000000	      0.00000000	     -0.00000000	     -0.00000000	      0.03365198	      0.13895485	      0.03365198	      0.14531172	      0.03365198	      0.15551736	      0.03365198	      0.15932344	      0.03365198	      0.13046981	      0.03365198	      0.11167176
      0.03038677	    -24.72473926	   -480.13863232	     22.40164112	    595.57105465	      0.00000000	     -0.00000000	      0.00000000	      0.00000000	     -0.00000000	      0.00000000	     -0.09000000	      0.00000000	     -0.05623795	     -0.00000000	     -0.00000000	     -0.00000000	     83.50361699	    -25.18621967	      4.11509629	      1.89592674	     -3.44293433	     18.72346437	   -111.78410517	    192.26151237	     -0.00094296	      0.05903353	     -0.49338504	      0.06356744	     17.64586776	     -0.37897368	      0.02348529	      0.09088357	     -0.02395657	      0.01440344	     26.61754470	    -53.25634257	      0.00000000	      0.00000000	     -0.00000000	     -0.00000000	      0.03265095	      0.13900747	      0.03265095	      0.14538444	      0.03265095	      0.15552875	      0.03265095	      0.15910978	      0.03265095	      0.13053335	      0.03265095	      0.11180305
      0.03337597	    -26.15997007	   -480.13863232	     24.17978678	    594.14373638	      0.00000000	     -0.00000000	      0.00000000	     -0.00000000	     -0.00000000	     -0.00000000	     -0.09000000	      0.00000000	     -0.05623795	     -0.00000000	     -0.00000000	     -0.00000000	     83.41974365	    -30.92410451	      4.12081304	      1.92853847	     -3.38658465	     18.97579788	   -111.20298525	    196.53185492	     -0.00076596	      0.05937943	     -0.49319263	      0.06516282	     17.64466785	     -0.42395148	      0.02375921	      0.09237341	     -0.02391325	      0.01458026	     26.45837338	    -53.22688002	      0.00000000	      0.00000000	     -0.00000000	     -0.00000000	      0.03134086	      0.13907413	      0.03134086	      0.14548807	      0.03134086	      0.15553937	      0.03134086	      0.15886738	      0.03134086	      0.13062543	      0.03134086	      0.11198060
      0.03620240	    -27.51705173	   -480.13863232	     25.85720173	    592.80474077	      0.00000000	      0.00000000	      0.00000000	     -0.00000000	     -0.00000000	     -0.00000000	     -0.09000000	      0.00000000	     -0.05623795	     -0.00000000	     -0.00000000	     -0.00000000	     83.32472110	    -36.30697171	      4.12630442	      1.95675889	     -3.33263231	     19.19862350	   -110.64192155	    200.46199222	     -0.00059777	      0.05961946	     -0.49300635	      0.06664137	     17.64340896	     -0.46688906	      0.02402220	      0.09370282	     -0.02387182	      0.01472790	     26.30806258	    -53.12144066	      0.00000000	      0.00000000	     -0.00000000	     -0.00000000	      0.03015449	      0.13913149	      0.03015449	      0.14559145	      0.03015449	      0.15554424	      0.03015449	      0.15859858	      0.03015449	      0.13071576	      0.03015449	      0.11214720
